<?xml version="1.0" standalone="no"?>
<!DOCTYPE svg PUBLIC "-//W3C//DTD SVG 20010904//EN"
 "http://www.w3.org/TR/2001/REC-SVG-20010904/DTD/svg10.dtd">
<svg version="1.0" xmlns="http://www.w3.org/2000/svg"
 width="160.000000pt" height="160.000000pt" viewBox="0 0 160.000000 160.000000"
 preserveAspectRatio="xMidYMid meet">
<metadata>
Created by potrace 1.11, written by Peter Selinger 2001-2013
</metadata>
<g transform="translate(0.000000,160.000000) scale(0.100000,-0.100000)"
fill="#000000" stroke="none">
<path d="M720 1596 c-3 -3 -19 -7 -35 -10 -75 -14 -89 -17 -130 -32 -89 -30
-215 -98 -215 -116 0 -5 -4 -7 -9 -4 -14 9 -145 -128 -193 -201 -25 -37 -57
-97 -72 -133 -25 -62 -31 -81 -42 -140 -2 -14 -9 -43 -15 -66 -17 -64 -5 -204
26 -312 15 -51 15 -55 -10 -123 -14 -39 -25 -88 -25 -110 0 -48 33 -151 62
-194 38 -54 122 -125 134 -112 4 4 8 454 5 595 l-1 22 -40 -26 c-22 -15 -43
-24 -47 -21 -8 9 -9 192 -1 249 31 209 184 415 385 517 68 34 192 63 283 67
395 13 725 -306 723 -701 -1 -137 -7 -148 -57 -110 -20 15 -37 26 -37 24 -7
-18 -3 -611 3 -615 10 -6 72 38 106 76 12 14 36 53 52 86 26 53 30 73 29 140
0 59 -6 91 -23 128 l-22 50 23 79 c18 61 23 104 23 187 0 170 -41 305 -134
445 -125 189 -299 303 -536 351 -45 9 -204 17 -210 10z"/>
<path d="M571 980 l-2 -50 106 0 106 0 -3 48 -3 47 -101 3 -100 2 -3 -50z"/>
<path d="M826 1021 c-1 -3 -4 -25 -5 -48 l-3 -43 106 0 106 0 0 49 0 49 -100
0 c-55 -1 -102 -4 -104 -7z"/>
<path d="M325 951 c-6 -11 -3 -81 4 -82 25 -3 178 -4 189 -1 7 2 12 22 12 48
l0 43 -100 -1 c-56 -1 -103 -4 -105 -7z"/>
<path d="M1070 912 l0 -48 103 1 102 0 5 35 c3 19 4 40 2 46 -2 7 -41 11 -107
12 l-105 1 0 -47z"/>
<path d="M580 912 c-6 -2 -10 -21 -10 -43 l0 -40 107 3 106 3 1 33 c1 19 -3
36 -8 39 -9 6 -180 10 -196 5z"/>
<path d="M843 912 c-19 -3 -23 -10 -23 -43 l0 -39 105 0 105 0 0 43 0 42 -82
0 c-46 0 -93 -1 -105 -3z"/>
<path d="M326 840 c-2 -3 -3 -21 -2 -40 l1 -35 103 -3 102 -3 0 44 0 43 -101
-1 c-55 0 -102 -2 -103 -5z"/>
<path d="M1074 841 c-2 -2 -4 -22 -4 -43 l0 -38 105 0 105 0 0 43 0 42 -101 0
c-55 0 -103 -2 -105 -4z"/>
<path d="M570 445 l0 -365 105 0 105 0 1 28 c0 15 1 178 1 362 l1 335 -107 3
-106 3 0 -366z"/>
<path d="M823 448 l2 -363 103 -3 102 -3 1 63 c0 58 0 610 -1 651 0 15 -12 17
-104 17 l-104 0 1 -362z"/>
<path d="M1093 742 l-23 -3 0 -330 0 -329 105 0 105 0 0 329 0 330 -82 3 c-46
2 -93 2 -105 0z"/>
<path d="M324 411 l0 -329 103 -1 103 -1 0 330 0 330 -103 0 -102 0 -1 -329z"/>
<path d="M325 33 l1 -28 102 -3 102 -3 0 31 0 30 -103 0 -104 0 2 -27z"/>
<path d="M570 30 l0 -30 104 0 104 0 4 30 5 30 -109 0 -108 0 0 -30z"/>
<path d="M822 30 l1 -30 102 0 c101 0 103 0 107 25 3 13 3 27 0 30 -3 3 -52 5
-108 5 l-103 0 1 -30z"/>
<path d="M1070 30 l0 -30 105 0 105 0 0 30 0 30 -105 0 -105 0 0 -30z"/>
</g>
</svg>
